<?xml version="1.0" encoding="UTF-8"?>
<svg id="Layer_1" data-name="Layer 1" xmlns="http://www.w3.org/2000/svg" viewBox="0 0 50.98 78">
  <defs>
    <style>
      .cls-1 {
        fill: #fff;
      }

      .cls-2 {
        fill: #6d6d6d;
      }
    </style>
  </defs>
  <g>
    <path class="cls-2" d="m25.51,38.03s0,0,0,0c.82.27,1.13,1.04,1.56,1.66,1.72,2.49,2.79,5.26,3.43,8.2.18.81.48,1.11,1.36,1.09,3.29-.06,6.58-.05,9.87,0,.84.01,1.13-.22,1.11-1.09-.05-2.94,0-5.89-.04-8.83-.01-.8.22-1.05,1.02-1.02,1.6.06,3.2.04,4.8,0,.71-.02.99.18.98.94-.02,9.18-.03,18.35,0,27.53,0,.84-.31,1.01-1.06.99-1.43-.05-2.86-.06-4.28,0-.83.04-1.02-.28-1.01-1.04.03-3.51-.02-7.01.04-10.52.02-.99-.27-1.23-1.23-1.21-3.33.06-6.67.07-10,0-.97-.02-1.23.33-1.38,1.19-.67,4.11-2.26,7.78-5.27,10.75-.59.59-1.21.84-2.07.83-3.37-.05-6.75-.02-10.23-.02,0,0,0,0,0,0,.23-.58.77-.71,1.15-.97,4.46-3.03,7.69-6.93,8.7-12.38.47-2.5-.23-4.81-1.31-7.01-1.68-3.44-4.37-5.98-7.46-8.14-.35-.25-.7-.49-1.05-.73,0,0,0,0,0,0,.55-.04,1.1-.1,1.65-.11,3.57-.04,7.13-.06,10.7-.09Z"/>
    <path class="cls-1" d="m25.51,38.03c-3.57.03-7.13.05-10.7.09-.55,0-1.11.07-1.66.11-5.4-3.4-9.75-7.66-11.29-14.1C-.51,14.21,5.65,4.35,15.76,1.82c5.86-1.46,11.57-1.06,17.09,1.53,1.01.47,1.5,1.03,1.43,2.25-.13,2.32-.04,4.65-.04,7.34-.66-.54-1.08-.92-1.53-1.26-4.79-3.58-9.99-4.66-15.62-2.33-5.66,2.34-8.02,8.14-5.76,13.82,1.08,2.72,2.85,4.93,5.14,6.73,2.69,2.11,5.37,4.24,7.78,6.67.45.46.97.87,1.25,1.47Z"/>
  </g>
  <g>
    <path class="cls-2" d="m1.84,77.34l.43-1.19c.46.37.9.55,1.34.55.68,0,1.02-.27,1.02-.82,0-.26-.08-.5-.24-.73-.16-.23-.49-.49-.99-.78-.5-.29-.83-.53-1.01-.71-.17-.19-.31-.41-.4-.66-.09-.26-.14-.54-.14-.85,0-.58.18-1.06.55-1.44.37-.38.84-.57,1.42-.57.75,0,1.3.16,1.65.49l-.35,1.15c-.41-.33-.83-.5-1.28-.5-.27,0-.47.08-.62.24-.15.16-.22.37-.22.63,0,.43.41.88,1.24,1.34.44.25.75.47.94.68.19.21.34.45.44.72.1.28.15.58.15.92,0,.61-.21,1.11-.62,1.5s-.97.59-1.67.59c-.61,0-1.15-.18-1.64-.54Z"/>
    <path class="cls-2" d="m6.82,77.76v-7.5h1.15v7.5h-1.15Z"/>
    <path class="cls-2" d="m13.59,77.86l-3.15-4.75v4.65h-1.11v-7.51h.55l3.07,4.53v-4.53h1.11v7.6h-.47Z"/>
    <path class="cls-2" d="m19.85,70.65l-.47,1.1c-.26-.3-.67-.45-1.24-.45s-.99.26-1.33.79c-.35.52-.52,1.19-.52,1.99s.16,1.44.48,1.91c.32.47.75.71,1.28.71.61,0,1.09-.25,1.44-.76l.54,1.08c-.47.58-1.16.87-2.07.87s-1.61-.34-2.12-1.03-.75-1.63-.75-2.82c0-1.11.28-2.04.84-2.78.56-.75,1.27-1.12,2.14-1.12.75,0,1.34.18,1.79.53Z"/>
    <path class="cls-2" d="m22.11,71.44v1.76h2.15v1.13h-2.15v2.25h2.95v1.18h-4.1v-7.5h4.15v1.18h-2.99Z"/>
    <path class="cls-2" d="m28.88,77.76v-.39l2.06-3.5c.41-.7.62-1.29.62-1.77,0-.57-.29-.85-.88-.85-.45,0-.81.28-1.09.83l-.78-.71c.15-.36.4-.66.73-.89.33-.24.69-.36,1.09-.36.67,0,1.19.18,1.56.53.38.35.56.84.56,1.46,0,.57-.24,1.28-.72,2.13l-1.33,2.34h2.44v1.18h-4.26Z"/>
    <path class="cls-2" d="m33.85,73.78c0-1.02.22-1.89.65-2.6s1.01-1.06,1.74-1.06c1.51,0,2.27,1.27,2.27,3.82,0,1.19-.2,2.14-.61,2.85s-.98,1.07-1.72,1.07c-.79,0-1.38-.33-1.76-.98s-.57-1.69-.57-3.1Zm1.2.09c0,1,.08,1.74.25,2.21s.45.71.84.71c.42,0,.72-.21.9-.64s.27-1.18.27-2.27c0-1.01-.08-1.71-.25-2.1s-.45-.58-.84-.58c-.78,0-1.17.89-1.17,2.67Z"/>
    <path class="cls-2" d="m39.17,73.78c0-1.02.22-1.89.65-2.6.43-.71,1.01-1.06,1.74-1.06,1.51,0,2.27,1.27,2.27,3.82,0,1.19-.2,2.14-.61,2.85s-.98,1.07-1.72,1.07c-.79,0-1.38-.33-1.76-.98-.38-.66-.57-1.69-.57-3.1Zm1.2.09c0,1,.08,1.74.25,2.21.17.47.45.71.84.71.42,0,.72-.21.9-.64.18-.42.27-1.18.27-2.27,0-1.01-.08-1.71-.26-2.1-.17-.39-.45-.58-.84-.58-.78,0-1.17.89-1.17,2.67Z"/>
    <path class="cls-2" d="m47.54,70.11l.61.75c-.44.27-.84.62-1.2,1.05-.36.43-.61.86-.75,1.29.31-.16.57-.24.8-.24.61,0,1.1.22,1.48.66.37.44.56,1.03.56,1.78s-.19,1.33-.57,1.79c-.38.46-.86.68-1.44.68-1.51,0-2.27-1.09-2.27-3.27,0-.92.29-1.84.88-2.78.58-.94,1.22-1.5,1.91-1.7Zm-1.59,5.25c0,.91.34,1.37,1.01,1.37.27,0,.49-.11.66-.34.16-.23.24-.54.24-.95s-.09-.75-.26-.99c-.17-.24-.39-.37-.66-.37-.66,0-.99.43-.99,1.28Z"/>
  </g>
</svg>